<svg width="14" height="14" viewBox="0 0 14 14" fill="none" xmlns="http://www.w3.org/2000/svg">
<path d="M3.86667 0.333984H9.46667C11.6 0.333984 13.3333 2.06732 13.3333 4.20065V9.80065C13.3333 10.8262 12.926 11.8097 12.2008 12.5348C11.4757 13.2599 10.4922 13.6673 9.46667 13.6673H3.86667C1.73333 13.6673 0 11.934 0 9.80065V4.20065C0 3.17515 0.40738 2.19165 1.13252 1.4665C1.85766 0.741364 2.84116 0.333984 3.86667 0.333984ZM3.73333 1.66732C3.09681 1.66732 2.48636 1.92017 2.03628 2.37026C1.58619 2.82035 1.33333 3.4308 1.33333 4.06732V9.93398C1.33333 11.2607 2.40667 12.334 3.73333 12.334H9.6C10.2365 12.334 10.847 12.0811 11.2971 11.631C11.7471 11.181 12 10.5705 12 9.93398V4.06732C12 2.74065 10.9267 1.66732 9.6 1.66732H3.73333ZM10.1667 2.66732C10.3877 2.66732 10.5996 2.75512 10.7559 2.9114C10.9122 3.06768 11 3.27964 11 3.50065C11 3.72166 10.9122 3.93363 10.7559 4.08991C10.5996 4.24619 10.3877 4.33398 10.1667 4.33398C9.94565 4.33398 9.73369 4.24619 9.57741 4.08991C9.42113 3.93363 9.33333 3.72166 9.33333 3.50065C9.33333 3.27964 9.42113 3.06768 9.57741 2.9114C9.73369 2.75512 9.94565 2.66732 10.1667 2.66732ZM6.66667 3.66732C7.55072 3.66732 8.39857 4.01851 9.02369 4.64363C9.64881 5.26875 10 6.1166 10 7.00065C10 7.88471 9.64881 8.73255 9.02369 9.35767C8.39857 9.98279 7.55072 10.334 6.66667 10.334C5.78261 10.334 4.93477 9.98279 4.30964 9.35767C3.68452 8.73255 3.33333 7.88471 3.33333 7.00065C3.33333 6.1166 3.68452 5.26875 4.30964 4.64363C4.93477 4.01851 5.78261 3.66732 6.66667 3.66732ZM6.66667 5.00065C6.13623 5.00065 5.62753 5.21136 5.25245 5.58644C4.87738 5.96151 4.66667 6.47022 4.66667 7.00065C4.66667 7.53108 4.87738 8.03979 5.25245 8.41487C5.62753 8.78994 6.13623 9.00065 6.66667 9.00065C7.1971 9.00065 7.70581 8.78994 8.08088 8.41487C8.45595 8.03979 8.66667 7.53108 8.66667 7.00065C8.66667 6.47022 8.45595 5.96151 8.08088 5.58644C7.70581 5.21136 7.1971 5.00065 6.66667 5.00065Z" fill="white"/>
</svg>
