<svg width="16" height="16" viewBox="0 0 16 16" fill="none" xmlns="http://www.w3.org/2000/svg">
<path d="M10.9073 9.33398C10.9607 8.89398 11.0007 8.45398 11.0007 8.00065C11.0007 7.54732 10.9607 7.10732 10.9073 6.66732H13.1607C13.2673 7.09398 13.334 7.54065 13.334 8.00065C13.334 8.46065 13.2673 8.90732 13.1607 9.33398M9.72732 13.0407C10.1273 12.3007 10.434 11.5007 10.6473 10.6673H12.614C11.9681 11.7795 10.9434 12.622 9.72732 13.0407ZM9.56065 9.33398H6.44065C6.37398 8.89398 6.33398 8.45398 6.33398 8.00065C6.33398 7.54732 6.37398 7.10065 6.44065 6.66732H9.56065C9.62065 7.10065 9.66732 7.54732 9.66732 8.00065C9.66732 8.45398 9.62065 8.89398 9.56065 9.33398ZM8.00065 13.3073C7.44732 12.5073 7.00065 11.6207 6.72732 10.6673H9.27398C9.00065 11.6207 8.55398 12.5073 8.00065 13.3073ZM5.33398 5.33398H3.38732C4.02641 4.21867 5.05042 3.37481 6.26732 2.96065C5.86732 3.70065 5.56732 4.50065 5.33398 5.33398ZM3.38732 10.6673H5.33398C5.56732 11.5007 5.86732 12.3007 6.26732 13.0407C5.05283 12.6222 4.03018 11.7794 3.38732 10.6673ZM2.84065 9.33398C2.73398 8.90732 2.66732 8.46065 2.66732 8.00065C2.66732 7.54065 2.73398 7.09398 2.84065 6.66732H5.09398C5.04065 7.10732 5.00065 7.54732 5.00065 8.00065C5.00065 8.45398 5.04065 8.89398 5.09398 9.33398M8.00065 2.68732C8.55398 3.48732 9.00065 4.38065 9.27398 5.33398H6.72732C7.00065 4.38065 7.44732 3.48732 8.00065 2.68732ZM12.614 5.33398H10.6473C10.4383 4.50839 10.1294 3.71139 9.72732 2.96065C10.954 3.38065 11.974 4.22732 12.614 5.33398ZM8.00065 1.33398C4.31398 1.33398 1.33398 4.33398 1.33398 8.00065C1.33398 9.76876 2.03636 11.4645 3.28661 12.7147C3.90566 13.3338 4.64059 13.8248 5.44943 14.1598C6.25827 14.4949 7.12517 14.6673 8.00065 14.6673C9.76876 14.6673 11.4645 13.9649 12.7147 12.7147C13.9649 11.4645 14.6673 9.76876 14.6673 8.00065C14.6673 7.12517 14.4949 6.25827 14.1598 5.44943C13.8248 4.64059 13.3338 3.90566 12.7147 3.28661C12.0956 2.66755 11.3607 2.17649 10.5519 1.84145C9.74304 1.50642 8.87613 1.33398 8.00065 1.33398Z" fill="white"/>
</svg>
